<?xml version="1.0" encoding="UTF-8" standalone="no"?>
<!DOCTYPE svg PUBLIC "-//W3C//DTD SVG 1.1//EN"
 "http://www.w3.org/Graphics/SVG/1.1/DTD/svg11.dtd">
<!-- Generated by graphviz version 2.26.0 (20091210.2329)
 -->
<!-- Title: test Pages: 1 -->
<svg width="302pt" height="127pt"
 viewBox="0.00 0.00 302.00 126.58" xmlns="http://www.w3.org/2000/svg" xmlns:xlink="http://www.w3.org/1999/xlink">
<g id="graph1" class="graph" transform="scale(1 1) rotate(0) translate(4 122.584)">
<title>test</title>
<polygon fill="white" stroke="white" points="-4,5 -4,-122.584 299,-122.584 299,5 -4,5"/>
<!-- G0482 -->
<g id="node1" class="node"><title>G0482</title>
<ellipse fill="none" stroke="black" cx="37" cy="-93" rx="36.977" ry="19.0919"/>
<text text-anchor="middle" x="37" y="-89.9" font-family="Times Roman,serif" font-size="14.00">G0482</text>
</g>
<!-- G0482&#45;&gt;G0482 -->
<g id="edge6" class="edge"><title>G0482&#45;&gt;G0482</title>
<path fill="none" stroke="black" d="M63.5985,-106.211C78.3843,-108.677 92,-104.273 92,-93 92,-81.7266 78.3843,-77.3229 63.5985,-79.7889"/>
<text text-anchor="middle" x="71.4715" y="-85.0545" font-family="Times Roman,serif" font-size="6.00">0.0</text>
<text text-anchor="middle" x="69.764" y="-113.184" font-family="Times Roman,serif" font-size="6.00">0.0</text>
</g>
<!-- TG0000 -->
<g id="node2" class="node"><title>TG0000</title>
<ellipse fill="none" stroke="black" cx="94" cy="-19" rx="43.8406" ry="19.0919"/>
<text text-anchor="middle" x="94" y="-15.9" font-family="Times Roman,serif" font-size="14.00">TG0000</text>
</g>
<!-- G0482&#45;&gt;TG0000 -->
<g id="edge10" class="edge"><title>G0482&#45;&gt;TG0000</title>
<path fill="none" stroke="red" d="M45.4311,-74.3267C51.5767,-65.2282 59.9457,-54.1518 68.0662,-44.3065"/>
<polygon fill="red" stroke="red" points="70.9759,-46.2869 74.7747,-36.3965 65.6373,-41.7592 70.9759,-46.2869"/>
<text text-anchor="middle" x="64.8083" y="-36.3156" font-family="Times Roman,serif" font-size="6.00">0.0</text>
<text text-anchor="middle" x="55.2607" y="-71.5884" font-family="Times Roman,serif" font-size="6.00">0.0</text>
</g>
<!-- G0482&#45;&gt;TG0000 -->
<g id="edge12" class="edge"><title>G0482&#45;&gt;TG0000</title>
<path fill="none" stroke="black" d="M55.695,-76.2083C65.7447,-64.78 77.4736,-49.6414 85.4779,-37.8079"/>
<text text-anchor="middle" x="75.6439" y="-38.7222" font-family="Times Roman,serif" font-size="6.00">0.0</text>
<text text-anchor="middle" x="65.6694" y="-74.5928" font-family="Times Roman,serif" font-size="6.00">0.0</text>
</g>
<!-- LG0000 -->
<g id="node5" class="node"><title>LG0000</title>
<ellipse fill="none" stroke="black" cx="200" cy="-19" rx="43.8406" ry="19.0919"/>
<text text-anchor="middle" x="200" y="-15.9" font-family="Times Roman,serif" font-size="14.00">LG0000</text>
</g>
<!-- G0482&#45;&gt;LG0000 -->
<g id="edge8" class="edge"><title>G0482&#45;&gt;LG0000</title>
<path fill="none" stroke="black" d="M65.0207,-80.2789C94.1483,-67.0554 139.593,-46.4242 169.58,-32.8104"/>
<text text-anchor="middle" x="160.218" y="-28.3948" font-family="Times Roman,serif" font-size="6.00">0.0</text>
<text text-anchor="middle" x="74.3824" y="-82.8945" font-family="Times Roman,serif" font-size="6.00">0.0</text>
</g>
<!-- G0964 -->
<g id="node3" class="node"><title>G0964</title>
<ellipse fill="none" stroke="black" cx="147" cy="-93" rx="36.977" ry="19.0919"/>
<text text-anchor="middle" x="147" y="-89.9" font-family="Times Roman,serif" font-size="14.00">G0964</text>
</g>
<!-- G0964&#45;&gt;TG0000 -->
<g id="edge22" class="edge"><title>G0964&#45;&gt;TG0000</title>
<path fill="none" stroke="black" d="M124.833,-77.6672C113.786,-66.1523 102.183,-50.3145 95.6404,-37.9968"/>
<text text-anchor="middle" x="92.8965" y="-46.713" font-family="Times Roman,serif" font-size="6.00">0.0</text>
<text text-anchor="middle" x="125.197" y="-66.7738" font-family="Times Roman,serif" font-size="6.00">0.0</text>
</g>
<!-- G0964&#45;&gt;TG0000 -->
<g id="edge24" class="edge"><title>G0964&#45;&gt;TG0000</title>
<path fill="none" stroke="black" d="M145.328,-73.9432C138.949,-61.9526 127.792,-46.6447 117.024,-35.2339"/>
<text text-anchor="middle" x="116.587" y="-44.3243" font-family="Times Roman,serif" font-size="6.00">0.0</text>
<text text-anchor="middle" x="148.071" y="-63.4267" font-family="Times Roman,serif" font-size="6.00">1.0</text>
</g>
<!-- G0964&#45;&gt;TG0000 -->
<g id="edge20" class="edge"><title>G0964&#45;&gt;TG0000</title>
<path fill="none" stroke="blue" d="M134.17,-75.0867C127.82,-66.2203 120.028,-55.3404 113.001,-45.5304"/>
<polygon fill="blue" stroke="blue" points="115.748,-43.3544 107.08,-37.2625 110.057,-47.4304 115.748,-43.3544"/>
<text text-anchor="middle" x="105.448" y="-46.2285" font-family="Times Roman,serif" font-size="6.00">0.0</text>
<text text-anchor="middle" x="135.802" y="-64.3206" font-family="Times Roman,serif" font-size="6.00">1.0</text>
</g>
<!-- G0964&#45;&gt;G0964 -->
<g id="edge14" class="edge"><title>G0964&#45;&gt;G0964</title>
<path fill="none" stroke="black" d="M173.598,-106.211C188.384,-108.677 202,-104.273 202,-93 202,-81.7266 188.384,-77.3229 173.598,-79.7889"/>
<text text-anchor="middle" x="181.472" y="-85.0545" font-family="Times Roman,serif" font-size="6.00">1.0</text>
<text text-anchor="middle" x="179.764" y="-113.184" font-family="Times Roman,serif" font-size="6.00">1.0</text>
</g>
<!-- G0964&#45;&gt;LG0000 -->
<g id="edge16" class="edge"><title>G0964&#45;&gt;LG0000</title>
<path fill="none" stroke="black" d="M154.422,-74.3267C161.659,-62.6807 172.363,-47.7939 181.715,-36.3965"/>
<text text-anchor="middle" x="171.771" y="-36.5534" font-family="Times Roman,serif" font-size="6.00">0.0</text>
<text text-anchor="middle" x="164.179" y="-71.2367" font-family="Times Roman,serif" font-size="6.00">0.0</text>
</g>
<!-- G0964&#45;&gt;LG0000 -->
<g id="edge18" class="edge"><title>G0964&#45;&gt;LG0000</title>
<path fill="none" stroke="black" d="M164.787,-76.2083C174.219,-64.78 185.13,-49.6414 192.495,-37.8079"/>
<text text-anchor="middle" x="182.736" y="-39.0906" font-family="Times Roman,serif" font-size="6.00">0.0</text>
<text text-anchor="middle" x="174.734" y="-74.2768" font-family="Times Roman,serif" font-size="6.00">1.0</text>
</g>
<!-- G0241 -->
<g id="node4" class="node"><title>G0241</title>
<ellipse fill="none" stroke="black" cx="257" cy="-93" rx="36.977" ry="19.0919"/>
<text text-anchor="middle" x="257" y="-89.9" font-family="Times Roman,serif" font-size="14.00">G0241</text>
</g>
<!-- G0241&#45;&gt;TG0000 -->
<g id="edge4" class="edge"><title>G0241&#45;&gt;TG0000</title>
<path fill="none" stroke="black" d="M228.979,-80.2789C199.852,-67.0554 154.407,-46.4242 124.42,-32.8104"/>
<text text-anchor="middle" x="127.936" y="-41.272" font-family="Times Roman,serif" font-size="6.00">0.0</text>
<text text-anchor="middle" x="225.464" y="-70.0173" font-family="Times Roman,serif" font-size="6.00">0.0</text>
</g>
<!-- G0241&#45;&gt;LG0000 -->
<g id="edge2" class="edge"><title>G0241&#45;&gt;LG0000</title>
<path fill="none" stroke="black" d="M243.202,-75.0867C234.372,-63.6231 222.949,-48.7935 214.067,-37.2625"/>
<text text-anchor="middle" x="212.78" y="-46.2793" font-family="Times Roman,serif" font-size="6.00">0.0</text>
<text text-anchor="middle" x="244.489" y="-64.2698" font-family="Times Roman,serif" font-size="6.00">0.0</text>
</g>
</g>
</svg>
